<svg width="161" height="84" viewBox="0 0 161 84" fill="none" xmlns="http://www.w3.org/2000/svg">
<path d="M132.799 24.5634C127.963 18.6167 122.813 14.4349 122.597 14.2616C121.155 13.0978 119.046 13.3251 117.883 14.7678C116.72 16.2105 116.947 18.3217 118.388 19.4856C118.437 19.5235 123.203 23.3941 127.6 28.7994C131.392 33.463 135.652 40.2027 134.413 45.8138C133.288 50.8997 127.59 54.7594 117.472 57.2875C108.303 58.9738 98.8747 54.9516 89.5519 49.568C99.6509 41.5399 108.741 31.8959 115.981 21.4128C117.033 19.8889 116.652 17.7993 115.129 16.7437C113.607 15.6908 111.519 16.0724 110.464 17.5963C103.121 28.2283 93.7765 37.9481 83.4043 45.8544C82.2332 45.1235 81.0648 44.3873 79.8991 43.6511C70.9929 38.032 61.7836 32.2234 52.6664 30.28C41.8642 27.9792 32.6361 31.322 24.4546 40.5032C20.2517 45.2183 18.5829 51.598 19.9866 57.5663C21.631 64.5523 26.7265 69.1916 34.3346 70.6289C36.0844 70.9591 37.9533 71.1215 39.9304 71.1215C49.6373 71.1215 61.8594 67.1886 74.4439 59.8968C77.6002 58.067 80.7024 56.0722 83.737 53.9285C93.1815 59.6098 102.888 64.4007 113.031 64.398C114.94 64.398 116.863 64.2275 118.805 63.8621L118.992 63.8215C131.847 60.6276 139.238 55.0545 140.961 47.2591C142.422 40.6521 139.676 33.0137 132.801 24.5607L132.799 24.5634ZM35.5733 64.0353C30.5184 63.0798 27.5514 60.4598 26.5101 56.0289C25.6068 52.188 26.7076 48.0549 29.4555 44.972C34.6645 39.1282 40.1278 36.3024 46.3647 36.3024C46.8785 36.3024 47.3978 36.324 47.9225 36.3619C46.9381 45.8273 47.0246 54.7351 48.1849 63.448C43.4085 64.4819 39.1082 64.7039 35.576 64.038L35.5733 64.0353ZM71.0794 54.0909C65.47 57.3416 59.9121 59.8805 54.7111 61.6291C53.7618 53.9474 53.7023 46.0709 54.5272 37.7234C61.4834 39.9673 68.7183 44.5308 76.3209 49.3271C76.7158 49.5761 77.1107 49.8251 77.5056 50.0741C75.3932 51.4924 73.2485 52.8322 71.0794 54.0909Z" fill="#F4BF5D"/>
<path d="M36.7854 42.8337L34.9869 44.3359C33.567 45.5241 33.3749 47.6408 34.5622 49.0618C35.2249 49.8549 36.1769 50.2663 37.137 50.2663C37.8943 50.2663 38.657 50.0092 39.2845 49.4868L41.0831 47.9845C42.503 46.7963 42.695 44.6796 41.5077 43.2586C40.3204 41.8376 38.2054 41.6454 36.7854 42.8337Z" fill="#F4BF5D"/>
</svg>
